<svg height="40pt" viewBox="-22 0 511 512" width="40pt" xmlns="http://www.w3.org/2000/svg"><defs><style>.cls-1{fill:#048200;}</style></defs><title>Untitled-2</title><path class="cls-1" d="M238.47,98A46.49,46.49,0,1,0,192,51.49,46.51,46.51,0,0,0,238.47,98ZM330,242.41,307.44,231,298,202.5c-14.24-43.2-54-73.42-99-73.52-34.87-.1-54.15,9.78-90.37,24.41a92.39,92.39,0,0,0-48.14,44.75L54,211.31A31.1,31.1,0,0,0,67.8,252.87,30.58,30.58,0,0,0,109,239l6.49-13.17a30.79,30.79,0,0,1,16-14.92l26-10.46-14.72,58.79a62.21,62.21,0,0,0,14.43,57l58,63.35a62.51,62.51,0,0,1,14.43,26.83l17.73,71a31,31,0,0,0,60.15-15l-21.5-86.21a62,62,0,0,0-14.43-26.83L227.43,301.2l16.66-66.54,5.33,16a61.77,61.77,0,0,0,30.7,35.84l22.57,11.43a30.58,30.58,0,0,0,41.17-13.85A31.36,31.36,0,0,0,330,242.41ZM108.29,378.69a60.11,60.11,0,0,1-13.75,20.83L46.11,448a31,31,0,0,0,43.78,43.88l57.54-57.54a63,63,0,0,0,13.75-20.83l13.08-32.74c-53.56-58.41-37.49-40.49-45.91-52Z" transform="translate(-37.02 -5)"/></svg>