<svg height="40pt" viewBox="-22 0 511 512" width="40pt" xmlns="http://www.w3.org/2000/svg"><defs><style>.cls-1{fill:#ce0505;}</style></defs><title>Untitled-2</title><path class="cls-1" d="M93.85,255.08a47.32,47.32,0,1,0-28.91,60.35A47.32,47.32,0,0,0,93.85,255.08Zm257.77,74.68,36.94,2.46,21.9,62.2a31.55,31.55,0,1,0,59.51-21l-25.36-72A47.22,47.22,0,0,0,403.12,270l-22-1.45-2.36,12a93.87,93.87,0,0,1-27.18,49.28ZM176.18,109,190.6,150l-41,41.67c-19.66,20-29.52,47.45-27.14,74.13l3.62,73a94.24,94.24,0,0,0,42.41,69.55l41.27,26.93a31.54,31.54,0,0,0,34.47-52.84L203,355.48c-8-5.2-13.15-13.6-14-21.49l-.75-15.1,93.52,6.21a63.26,63.26,0,0,0,66.06-50.75l18.82-95.44,90.57-3.19a31.54,31.54,0,1,0-2.22-63l-104.33,3.67a47.51,47.51,0,0,0-43.49,37.93l-13.55,68.78-83-3.48,31.89-32.41a47.61,47.61,0,0,0,10.89-48.89l-17.68-50.2a31.54,31.54,0,1,0-59.5,21Z" transform="translate(-1.89 -67)"/></svg>